<svg width="173" height="42" viewBox="0 0 173 42" fill="none" xmlns="http://www.w3.org/2000/svg">
<path opacity="0.5" d="M40.0652 2.25671L30.2601 36.9917C30.2102 37.1494 30.0108 37.1967 29.8945 37.0863L23.3301 30.8583L28.2492 13.4514C28.2991 13.2937 28.1495 13.1518 27.9833 13.1991L9.63617 17.8662L3.10498 11.6697C2.98865 11.5593 3.03851 11.3701 3.20469 11.3228L39.7993 2.00444C39.9655 1.97291 40.115 2.11481 40.0652 2.25671Z" fill="#00B37E"/>
<path opacity="0.5" d="M23.3297 30.858L20.8037 39.8452C20.7538 40.0029 20.5544 40.0502 20.4381 39.9398L0.0634003 20.6251C-0.0529313 20.5147 -0.00307518 20.3255 0.163113 20.2782L9.63583 17.8658L23.3297 30.858Z" fill="#00B37E"/>
<path d="M28.2484 13.4511L23.3292 30.858L9.63533 17.8659L27.9825 13.1988C28.1487 13.1515 28.2982 13.2934 28.2484 13.4511Z" fill="#00B37E"/>
<path d="M64.8107 21.5171H60.1384L60.1134 18.9436H64.0362C64.7274 18.9436 65.2938 18.8561 65.7352 18.6812C66.1766 18.498 66.5056 18.2356 66.7221 17.8942C66.947 17.5444 67.0594 17.1196 67.0594 16.6199C67.0594 16.0535 66.9512 15.5955 66.7346 15.2457C66.5264 14.8959 66.1974 14.6419 65.7477 14.4836C65.3063 14.3254 64.7358 14.2462 64.0362 14.2462H61.4377V29.5H57.6898V11.3104H64.0362C65.0939 11.3104 66.0392 11.4104 66.8721 11.6103C67.7132 11.8101 68.4253 12.1141 69.0083 12.5222C69.5913 12.9303 70.0369 13.4467 70.3451 14.0713C70.6532 14.6877 70.8073 15.4206 70.8073 16.2701C70.8073 17.0197 70.6366 17.7109 70.2951 18.3439C69.9619 18.9769 69.4331 19.4932 68.7085 19.893C67.9922 20.2928 67.0553 20.5135 65.8976 20.5551L64.8107 21.5171ZM64.6483 29.5H59.114L60.5757 26.5767H64.6483C65.3063 26.5767 65.8435 26.4726 66.2599 26.2644C66.6763 26.0478 66.9845 25.7563 67.1844 25.3899C67.3843 25.0234 67.4842 24.6028 67.4842 24.1281C67.4842 23.5951 67.3926 23.1328 67.2094 22.7414C67.0345 22.3499 66.7513 22.0501 66.3598 21.8419C65.9684 21.6253 65.452 21.5171 64.8107 21.5171H61.2003L61.2253 18.9436H65.7227L66.5847 19.9555C67.6924 19.9388 68.5836 20.1345 69.2582 20.5426C69.9411 20.9424 70.4367 21.4629 70.7448 22.1042C71.0613 22.7455 71.2196 23.4326 71.2196 24.1656C71.2196 25.3316 70.9655 26.3143 70.4575 27.1139C69.9495 27.9051 69.204 28.5006 68.2213 28.9003C67.2468 29.3001 66.0559 29.5 64.6483 29.5ZM81.801 26.2644V15.9828H85.3989V29.5H82.0134L81.801 26.2644ZM82.2008 23.4909L83.2627 23.466C83.2627 24.3654 83.1585 25.2025 82.9503 25.977C82.7421 26.7432 82.4298 27.4095 82.0134 27.9759C81.5969 28.5339 81.0722 28.9711 80.4393 29.2876C79.8063 29.5958 79.0609 29.7499 78.2031 29.7499C77.5451 29.7499 76.9371 29.6582 76.3791 29.475C75.8294 29.2835 75.3547 28.9878 74.9549 28.588C74.5635 28.1799 74.2553 27.6594 74.0304 27.0264C73.8139 26.3851 73.7056 25.6147 73.7056 24.7152V15.9828H77.3036V24.7402C77.3036 25.14 77.3494 25.4773 77.441 25.7521C77.5409 26.027 77.6784 26.2519 77.8533 26.4268C78.0282 26.6017 78.2322 26.7266 78.4654 26.8015C78.7069 26.8765 78.9734 26.914 79.2649 26.914C80.0062 26.914 80.5892 26.7641 81.0139 26.4642C81.447 26.1644 81.751 25.7563 81.9259 25.2399C82.1091 24.7152 82.2008 24.1322 82.2008 23.4909ZM96.1303 26.5517V10.311H99.7532V29.5H96.4926L96.1303 26.5517ZM87.5852 22.9038V22.6414C87.5852 21.6087 87.7018 20.6717 87.935 19.8305C88.1682 18.981 88.5096 18.2523 88.9594 17.6443C89.4091 17.0363 89.963 16.5658 90.6209 16.2326C91.2789 15.8995 92.0285 15.7329 92.8696 15.7329C93.6609 15.7329 94.3521 15.8995 94.9435 16.2326C95.5431 16.5658 96.0511 17.0405 96.4676 17.6568C96.8923 18.2648 97.2338 18.9852 97.492 19.8181C97.7502 20.6426 97.9376 21.5462 98.0542 22.529V23.1037C97.9376 24.0448 97.7502 24.9193 97.492 25.7272C97.2338 26.535 96.8923 27.243 96.4676 27.8509C96.0511 28.4506 95.5431 28.917 94.9435 29.2501C94.3438 29.5833 93.6442 29.7499 92.8447 29.7499C92.0035 29.7499 91.2539 29.5791 90.5959 29.2377C89.9463 28.8962 89.3966 28.4173 88.9469 27.801C88.5055 27.1847 88.1682 26.4601 87.935 25.6272C87.7018 24.7944 87.5852 23.8866 87.5852 22.9038ZM91.1831 22.6414V22.9038C91.1831 23.4618 91.2248 23.9823 91.308 24.4654C91.3997 24.9484 91.5454 25.3774 91.7453 25.7521C91.9535 26.1186 92.22 26.4059 92.5448 26.6142C92.878 26.814 93.2819 26.914 93.7566 26.914C94.3729 26.914 94.881 26.7766 95.2808 26.5017C95.6805 26.2185 95.9845 25.8313 96.1927 25.3399C96.4093 24.8485 96.5342 24.2822 96.5675 23.6409V22.0043C96.5425 21.4796 96.4676 21.009 96.3426 20.5926C96.226 20.1679 96.0511 19.8056 95.8179 19.5057C95.5931 19.2059 95.3099 18.9727 94.9684 18.8061C94.6353 18.6396 94.2397 18.5563 93.7816 18.5563C93.3152 18.5563 92.9154 18.6645 92.5823 18.8811C92.2492 19.0893 91.9785 19.3766 91.7703 19.7431C91.5704 20.1096 91.4205 20.5426 91.3205 21.0424C91.2289 21.5337 91.1831 22.0668 91.1831 22.6414ZM111.122 15.9828H114.382V29.0503C114.382 30.2829 114.107 31.3281 113.558 32.186C113.016 33.0521 112.259 33.7059 111.284 34.1473C110.31 34.5971 109.177 34.8219 107.886 34.8219C107.32 34.8219 106.72 34.747 106.087 34.5971C105.462 34.4472 104.863 34.214 104.288 33.8975C103.722 33.581 103.247 33.1812 102.864 32.6982L104.45 30.5744C104.867 31.0574 105.35 31.4322 105.9 31.6987C106.449 31.9736 107.057 32.111 107.724 32.111C108.373 32.111 108.923 31.9902 109.373 31.7487C109.822 31.5155 110.168 31.1699 110.41 30.7118C110.651 30.2621 110.772 29.7165 110.772 29.0752V19.106L111.122 15.9828ZM102.027 22.9038V22.6414C102.027 21.6087 102.152 20.6717 102.402 19.8305C102.66 18.981 103.022 18.2523 103.489 17.6443C103.963 17.0363 104.538 16.5658 105.213 16.2326C105.887 15.8995 106.649 15.7329 107.499 15.7329C108.398 15.7329 109.152 15.8995 109.76 16.2326C110.368 16.5658 110.868 17.0405 111.259 17.6568C111.651 18.2648 111.955 18.9852 112.171 19.8181C112.396 20.6426 112.571 21.5462 112.696 22.529V23.1037C112.571 24.0448 112.383 24.9193 112.134 25.7272C111.884 26.535 111.555 27.243 111.147 27.8509C110.739 28.4506 110.231 28.917 109.623 29.2501C109.023 29.5833 108.307 29.7499 107.474 29.7499C106.641 29.7499 105.887 29.5791 105.213 29.2377C104.546 28.8962 103.976 28.4173 103.501 27.801C103.026 27.1847 102.66 26.4601 102.402 25.6272C102.152 24.7944 102.027 23.8866 102.027 22.9038ZM105.625 22.6414V22.9038C105.625 23.4618 105.679 23.9823 105.787 24.4654C105.896 24.9484 106.062 25.3774 106.287 25.7521C106.52 26.1186 106.807 26.4059 107.149 26.6142C107.499 26.814 107.911 26.914 108.386 26.914C109.044 26.914 109.581 26.7766 109.997 26.5017C110.414 26.2185 110.726 25.8313 110.934 25.3399C111.142 24.8485 111.263 24.2822 111.297 23.6409V22.0043C111.28 21.4796 111.209 21.009 111.084 20.5926C110.959 20.1679 110.784 19.8056 110.559 19.5057C110.335 19.2059 110.043 18.9727 109.685 18.8061C109.327 18.6396 108.902 18.5563 108.411 18.5563C107.936 18.5563 107.524 18.6645 107.174 18.8811C106.832 19.0893 106.545 19.3766 106.312 19.7431C106.087 20.1096 105.916 20.5426 105.8 21.0424C105.683 21.5337 105.625 22.0668 105.625 22.6414ZM123.402 29.7499C122.353 29.7499 121.412 29.5833 120.579 29.2501C119.746 28.9087 119.038 28.4381 118.455 27.8385C117.88 27.2388 117.439 26.5434 117.131 25.7521C116.823 24.9526 116.668 24.1031 116.668 23.2036V22.7039C116.668 21.6795 116.814 20.7425 117.106 19.893C117.397 19.0435 117.814 18.3064 118.355 17.6818C118.905 17.0571 119.571 16.5782 120.354 16.2451C121.137 15.9036 122.02 15.7329 123.002 15.7329C123.96 15.7329 124.81 15.8911 125.551 16.2076C126.292 16.5241 126.913 16.9739 127.412 17.5569C127.92 18.1398 128.303 18.8394 128.562 19.6556C128.82 20.4635 128.949 21.363 128.949 22.3541V23.8532H118.205V21.4546H125.413V21.1798C125.413 20.6801 125.322 20.2345 125.139 19.843C124.964 19.4433 124.697 19.1268 124.339 18.8936C123.981 18.6604 123.523 18.5438 122.965 18.5438C122.49 18.5438 122.082 18.6479 121.741 18.8561C121.399 19.0643 121.12 19.3558 120.904 19.7306C120.695 20.1054 120.537 20.5468 120.429 21.0548C120.329 21.5546 120.279 22.1042 120.279 22.7039V23.2036C120.279 23.745 120.354 24.2447 120.504 24.7028C120.662 25.1608 120.883 25.5564 121.166 25.8896C121.457 26.2227 121.807 26.4809 122.215 26.6641C122.632 26.8474 123.102 26.939 123.627 26.939C124.277 26.939 124.88 26.814 125.438 26.5642C126.005 26.306 126.492 25.9187 126.9 25.4024L128.649 27.3013C128.366 27.7094 127.979 28.1008 127.487 28.4756C127.004 28.8504 126.421 29.1585 125.738 29.4001C125.055 29.6333 124.277 29.7499 123.402 29.7499ZM137.619 15.9828V18.5313H129.748V15.9828H137.619ZM131.697 12.6472H135.295V25.4273C135.295 25.8188 135.345 26.1186 135.445 26.3268C135.553 26.535 135.712 26.6808 135.92 26.7641C136.128 26.839 136.391 26.8765 136.707 26.8765C136.932 26.8765 137.132 26.8682 137.307 26.8515C137.49 26.8265 137.644 26.8015 137.769 26.7766L137.781 29.425C137.473 29.525 137.14 29.6041 136.782 29.6624C136.424 29.7207 136.028 29.7499 135.595 29.7499C134.804 29.7499 134.113 29.6208 133.521 29.3626C132.938 29.0961 132.489 28.6713 132.172 28.0883C131.856 27.5053 131.697 26.7391 131.697 25.7896V12.6472Z" fill="#E1E1E6"/>
</svg>
