<svg width="173" height="42" viewBox="0 0 173 42" fill="none" xmlns="http://www.w3.org/2000/svg">
<path opacity="0.5" d="M40.0652 2.25671L30.2601 36.9917C30.2102 37.1494 30.0108 37.1967 29.8945 37.0863L23.3301 30.8583L28.2492 13.4514C28.2991 13.2937 28.1495 13.1518 27.9833 13.1991L9.63617 17.8662L3.10498 11.6697C2.98865 11.5593 3.03851 11.3701 3.20469 11.3228L39.7993 2.00444C39.9655 1.97291 40.115 2.11481 40.0652 2.25671Z" fill="#00B37E"/>
<path opacity="0.5" d="M23.3297 30.858L20.8037 39.8452C20.7538 40.0029 20.5544 40.0502 20.4381 39.9398L0.0634003 20.6251C-0.0529313 20.5147 -0.00307518 20.3255 0.163113 20.2782L9.63583 17.8658L23.3297 30.858Z" fill="#00B37E"/>
<path d="M28.2484 13.4511L23.3292 30.858L9.63533 17.8659L27.9825 13.1988C28.1487 13.1515 28.2982 13.2934 28.2484 13.4511Z" fill="#00B37E"/>
<path d="M63.2741 29.5H59.3139L59.3389 26.5767H63.2741C64.2569 26.5767 65.0856 26.356 65.7602 25.9146C66.4348 25.4648 66.9428 24.811 67.2843 23.9532C67.6341 23.0953 67.809 22.0584 67.809 20.8425V19.9555C67.809 19.0227 67.7091 18.2023 67.5092 17.4944C67.3176 16.7865 67.0303 16.191 66.6472 15.7079C66.2641 15.2249 65.7935 14.8626 65.2355 14.621C64.6775 14.3712 64.0362 14.2462 63.3116 14.2462H59.2389V11.3104H63.3116C64.5276 11.3104 65.6394 11.5186 66.6472 11.9351C67.6633 12.3432 68.5419 12.9303 69.2832 13.6966C70.0244 14.4628 70.5949 15.3789 70.9947 16.445C71.4028 17.5027 71.6068 18.6812 71.6068 19.9805V20.8425C71.6068 22.1334 71.4028 23.3119 70.9947 24.3779C70.5949 25.444 70.0244 26.3601 69.2832 27.1264C68.5503 27.8843 67.6716 28.4714 66.6472 28.8879C65.6311 29.296 64.5067 29.5 63.2741 29.5ZM61.4377 11.3104V29.5H57.6898V11.3104H61.4377ZM80.7266 15.9828V18.5313H72.8561V15.9828H80.7266ZM74.805 12.6472H78.4029V25.4273C78.4029 25.8188 78.4529 26.1186 78.5529 26.3268C78.6611 26.535 78.8194 26.6808 79.0276 26.7641C79.2358 26.839 79.4981 26.8765 79.8146 26.8765C80.0395 26.8765 80.2394 26.8682 80.4143 26.8515C80.5975 26.8265 80.7516 26.8015 80.8765 26.7766L80.889 29.425C80.5809 29.525 80.2477 29.6041 79.8896 29.6624C79.5315 29.7207 79.1359 29.7499 78.7028 29.7499C77.9116 29.7499 77.2203 29.6208 76.629 29.3626C76.046 29.0961 75.5962 28.6713 75.2797 28.0883C74.9632 27.5053 74.805 26.7391 74.805 25.7896V12.6472ZM96.4926 21.5171H91.8202L91.7953 18.9436H95.718C96.4093 18.9436 96.9756 18.8561 97.417 18.6812C97.8584 18.498 98.1874 18.2356 98.404 17.8942C98.6288 17.5444 98.7413 17.1196 98.7413 16.6199C98.7413 16.0535 98.633 15.5955 98.4165 15.2457C98.2082 14.8959 97.8793 14.6419 97.4295 14.4836C96.9881 14.3254 96.4176 14.2462 95.718 14.2462H93.1195V29.5H89.3716V11.3104H95.718C96.7757 11.3104 97.721 11.4104 98.5539 11.6103C99.3951 11.8101 100.107 12.1141 100.69 12.5222C101.273 12.9303 101.719 13.4467 102.027 14.0713C102.335 14.6877 102.489 15.4206 102.489 16.2701C102.489 17.0197 102.318 17.7109 101.977 18.3439C101.644 18.9769 101.115 19.4932 100.39 19.893C99.6741 20.2928 98.7371 20.5135 97.5794 20.5551L96.4926 21.5171ZM96.3302 29.5H90.7958L92.2575 26.5767H96.3302C96.9881 26.5767 97.5253 26.4726 97.9417 26.2644C98.3582 26.0478 98.6663 25.7563 98.8662 25.3899C99.0661 25.0234 99.166 24.6028 99.166 24.1281C99.166 23.5951 99.0744 23.1328 98.8912 22.7414C98.7163 22.3499 98.4331 22.0501 98.0417 21.8419C97.6502 21.6253 97.1339 21.5171 96.4926 21.5171H92.8821L92.9071 18.9436H97.4045L98.2665 19.9555C99.3742 19.9388 100.265 20.1345 100.94 20.5426C101.623 20.9424 102.119 21.4629 102.427 22.1042C102.743 22.7455 102.901 23.4326 102.901 24.1656C102.901 25.3316 102.647 26.3143 102.139 27.1139C101.631 27.9051 100.886 28.5006 99.9031 28.9003C98.9287 29.3001 97.7377 29.5 96.3302 29.5ZM113.483 26.2644V15.9828H117.081V29.5H113.695L113.483 26.2644ZM113.883 23.4909L114.944 23.466C114.944 24.3654 114.84 25.2025 114.632 25.977C114.424 26.7432 114.112 27.4095 113.695 27.9759C113.279 28.5339 112.754 28.9711 112.121 29.2876C111.488 29.5958 110.743 29.7499 109.885 29.7499C109.227 29.7499 108.619 29.6582 108.061 29.475C107.511 29.2835 107.037 28.9878 106.637 28.588C106.245 28.1799 105.937 27.6594 105.712 27.0264C105.496 26.3851 105.387 25.6147 105.387 24.7152V15.9828H108.985V24.7402C108.985 25.14 109.031 25.4773 109.123 25.7521C109.223 26.027 109.36 26.2519 109.535 26.4268C109.71 26.6017 109.914 26.7266 110.147 26.8015C110.389 26.8765 110.655 26.914 110.947 26.914C111.688 26.914 112.271 26.7641 112.696 26.4642C113.129 26.1644 113.433 25.7563 113.608 25.2399C113.791 24.7152 113.883 24.1322 113.883 23.4909ZM127.812 26.5517V10.311H131.435V29.5H128.174L127.812 26.5517ZM119.267 22.9038V22.6414C119.267 21.6087 119.384 20.6717 119.617 19.8305C119.85 18.981 120.191 18.2523 120.641 17.6443C121.091 17.0363 121.645 16.5658 122.303 16.2326C122.961 15.8995 123.71 15.7329 124.551 15.7329C125.343 15.7329 126.034 15.8995 126.625 16.2326C127.225 16.5658 127.733 17.0405 128.149 17.6568C128.574 18.2648 128.916 18.9852 129.174 19.8181C129.432 20.6426 129.619 21.5462 129.736 22.529V23.1037C129.619 24.0448 129.432 24.9193 129.174 25.7272C128.916 26.535 128.574 27.243 128.149 27.8509C127.733 28.4506 127.225 28.917 126.625 29.2501C126.026 29.5833 125.326 29.7499 124.526 29.7499C123.685 29.7499 122.936 29.5791 122.278 29.2377C121.628 28.8962 121.078 28.4173 120.629 27.801C120.187 27.1847 119.85 26.4601 119.617 25.6272C119.384 24.7944 119.267 23.8866 119.267 22.9038ZM122.865 22.6414V22.9038C122.865 23.4618 122.907 23.9823 122.99 24.4654C123.081 24.9484 123.227 25.3774 123.427 25.7521C123.635 26.1186 123.902 26.4059 124.227 26.6142C124.56 26.814 124.964 26.914 125.438 26.914C126.055 26.914 126.563 26.7766 126.963 26.5017C127.362 26.2185 127.666 25.8313 127.875 25.3399C128.091 24.8485 128.216 24.2822 128.249 23.6409V22.0043C128.224 21.4796 128.149 21.009 128.024 20.5926C127.908 20.1679 127.733 19.8056 127.5 19.5057C127.275 19.2059 126.992 18.9727 126.65 18.8061C126.317 18.6396 125.922 18.5563 125.463 18.5563C124.997 18.5563 124.597 18.6645 124.264 18.8811C123.931 19.0893 123.66 19.3766 123.452 19.7431C123.252 20.1096 123.102 20.5426 123.002 21.0424C122.911 21.5337 122.865 22.0668 122.865 22.6414ZM142.803 15.9828H146.064V29.0503C146.064 30.2829 145.789 31.3281 145.24 32.186C144.698 33.0521 143.94 33.7059 142.966 34.1473C141.991 34.5971 140.859 34.8219 139.568 34.8219C139.002 34.8219 138.402 34.747 137.769 34.5971C137.144 34.4472 136.545 34.214 135.97 33.8975C135.404 33.581 134.929 33.1812 134.546 32.6982L136.132 30.5744C136.549 31.0574 137.032 31.4322 137.581 31.6987C138.131 31.9736 138.739 32.111 139.405 32.111C140.055 32.111 140.605 31.9902 141.055 31.7487C141.504 31.5155 141.85 31.1699 142.091 30.7118C142.333 30.2621 142.454 29.7165 142.454 29.0752V19.106L142.803 15.9828ZM133.709 22.9038V22.6414C133.709 21.6087 133.834 20.6717 134.084 19.8305C134.342 18.981 134.704 18.2523 135.17 17.6443C135.645 17.0363 136.22 16.5658 136.894 16.2326C137.569 15.8995 138.331 15.7329 139.181 15.7329C140.08 15.7329 140.834 15.8995 141.442 16.2326C142.05 16.5658 142.549 17.0405 142.941 17.6568C143.332 18.2648 143.636 18.9852 143.853 19.8181C144.078 20.6426 144.253 21.5462 144.378 22.529V23.1037C144.253 24.0448 144.065 24.9193 143.815 25.7272C143.566 26.535 143.237 27.243 142.828 27.8509C142.42 28.4506 141.912 28.917 141.304 29.2501C140.705 29.5833 139.988 29.7499 139.156 29.7499C138.323 29.7499 137.569 29.5791 136.894 29.2377C136.228 28.8962 135.658 28.4173 135.183 27.801C134.708 27.1847 134.342 26.4601 134.084 25.6272C133.834 24.7944 133.709 23.8866 133.709 22.9038ZM137.307 22.6414V22.9038C137.307 23.4618 137.361 23.9823 137.469 24.4654C137.577 24.9484 137.744 25.3774 137.969 25.7521C138.202 26.1186 138.489 26.4059 138.831 26.6142C139.181 26.814 139.593 26.914 140.068 26.914C140.726 26.914 141.263 26.7766 141.679 26.5017C142.096 26.2185 142.408 25.8313 142.616 25.3399C142.824 24.8485 142.945 24.2822 142.978 23.6409V22.0043C142.962 21.4796 142.891 21.009 142.766 20.5926C142.641 20.1679 142.466 19.8056 142.241 19.5057C142.016 19.2059 141.725 18.9727 141.367 18.8061C141.009 18.6396 140.584 18.5563 140.093 18.5563C139.618 18.5563 139.206 18.6645 138.856 18.8811C138.514 19.0893 138.227 19.3766 137.994 19.7431C137.769 20.1096 137.598 20.5426 137.482 21.0424C137.365 21.5337 137.307 22.0668 137.307 22.6414ZM155.084 29.7499C154.035 29.7499 153.093 29.5833 152.261 29.2501C151.428 28.9087 150.72 28.4381 150.137 27.8385C149.562 27.2388 149.121 26.5434 148.813 25.7521C148.504 24.9526 148.35 24.1031 148.35 23.2036V22.7039C148.35 21.6795 148.496 20.7425 148.788 19.893C149.079 19.0435 149.495 18.3064 150.037 17.6818C150.587 17.0571 151.253 16.5782 152.036 16.2451C152.819 15.9036 153.701 15.7329 154.684 15.7329C155.642 15.7329 156.491 15.8911 157.233 16.2076C157.974 16.5241 158.594 16.9739 159.094 17.5569C159.602 18.1398 159.985 18.8394 160.243 19.6556C160.502 20.4635 160.631 21.363 160.631 22.3541V23.8532H149.887V21.4546H157.095V21.1798C157.095 20.6801 157.004 20.2345 156.82 19.843C156.646 19.4433 156.379 19.1268 156.021 18.8936C155.663 18.6604 155.205 18.5438 154.647 18.5438C154.172 18.5438 153.764 18.6479 153.422 18.8561C153.081 19.0643 152.802 19.3558 152.585 19.7306C152.377 20.1054 152.219 20.5468 152.111 21.0548C152.011 21.5546 151.961 22.1042 151.961 22.7039V23.2036C151.961 23.745 152.036 24.2447 152.186 24.7028C152.344 25.1608 152.565 25.5564 152.848 25.8896C153.139 26.2227 153.489 26.4809 153.897 26.6641C154.314 26.8474 154.784 26.939 155.309 26.939C155.958 26.939 156.562 26.814 157.12 26.5642C157.687 26.306 158.174 25.9187 158.582 25.4024L160.331 27.3013C160.048 27.7094 159.66 28.1008 159.169 28.4756C158.686 28.8504 158.103 29.1585 157.42 29.4001C156.737 29.6333 155.958 29.7499 155.084 29.7499ZM169.301 15.9828V18.5313H161.43V15.9828H169.301ZM163.379 12.6472H166.977V25.4273C166.977 25.8188 167.027 26.1186 167.127 26.3268C167.235 26.535 167.394 26.6808 167.602 26.7641C167.81 26.839 168.072 26.8765 168.389 26.8765C168.614 26.8765 168.814 26.8682 168.988 26.8515C169.172 26.8265 169.326 26.8015 169.451 26.7766L169.463 29.425C169.155 29.525 168.822 29.6041 168.464 29.6624C168.106 29.7207 167.71 29.7499 167.277 29.7499C166.486 29.7499 165.794 29.6208 165.203 29.3626C164.62 29.0961 164.17 28.6713 163.854 28.0883C163.537 27.5053 163.379 26.7391 163.379 25.7896V12.6472Z" fill="#E1E1E6"/>
</svg>
